<svg class="w-full h-full" viewBox="0 0 738 115" fill="currentColor" xmlns="http://www.w3.org/2000/svg">
    <path d="M611.833 112.5V28.5001H628.473V46.4201L625.432 48.3401C626.286 45.5667 627.619 42.9001 629.432 40.3401C631.352 37.7801 633.646 35.5401 636.312 33.6201C639.086 31.5934 642.019 29.9934 645.113 28.8201C648.313 27.6467 651.566 27.0601 654.872 27.0601C659.672 27.0601 663.886 27.8601 667.513 29.4601C671.139 31.0601 674.126 33.4601 676.473 36.6601C678.819 39.8601 680.526 43.8601 681.593 48.6601L679.033 48.0201L680.153 45.3001C681.326 42.8467 682.926 40.5534 684.953 38.4201C687.086 36.1801 689.486 34.2067 692.153 32.5001C694.819 30.7934 697.646 29.4601 700.633 28.5001C703.619 27.5401 706.552 27.0601 709.432 27.0601C715.726 27.0601 720.899 28.3401 724.953 30.9001C729.113 33.4601 732.206 37.3534 734.232 42.5801C736.366 47.8067 737.432 54.3134 737.432 62.1001V112.5H720.793V63.0601C720.793 55.9134 719.406 50.6867 716.633 47.3801C713.966 43.9667 709.752 42.2601 703.992 42.2601C701.006 42.2601 698.179 42.7934 695.513 43.8601C692.953 44.8201 690.712 46.2067 688.792 48.0201C686.872 49.8334 685.379 51.9667 684.312 54.4201C683.246 56.7667 682.713 59.3801 682.713 62.2601V112.5H666.073V62.7401C666.073 56.1267 664.632 51.0601 661.753 47.5401C658.979 44.0201 654.926 42.2601 649.592 42.2601C646.606 42.2601 643.833 42.7934 641.273 43.8601C638.713 44.8201 636.473 46.2067 634.553 48.0201C632.633 49.7267 631.139 51.8067 630.073 54.2601C629.006 56.6067 628.473 59.1667 628.473 61.9401V112.5H611.833Z"/>
    <path d="M544.717 114.1C538.744 114.1 533.518 112.713 529.038 109.94C524.664 107.167 521.251 103.273 518.798 98.26C516.451 93.2467 515.277 87.2733 515.277 80.34V28.5H531.758V75.86C531.758 83.22 533.464 89.0333 536.878 93.3C540.398 97.5667 545.251 99.7 551.438 99.7C554.531 99.7 557.358 99.22 559.918 98.26C562.478 97.1933 564.664 95.7533 566.478 93.94C568.398 92.1267 569.891 89.94 570.958 87.38C572.024 84.82 572.557 82.0467 572.557 79.06V28.5H589.038V112.5H572.557V94.9L575.438 92.98C574.158 96.9267 571.971 100.5 568.878 103.7C565.891 106.9 562.318 109.46 558.158 111.38C553.998 113.193 549.518 114.1 544.717 114.1Z"/>
    <path d="M464.271 112.5V7.06006H480.751V112.5H464.271ZM446.831 44.5001V28.5001H500.271V44.5001H446.831Z"/>
    <path d="M358.715 112.5V28.5H375.195V41.4998C375.195 41.4998 375.462 40.5533 378.555 37.46C381.648 34.26 385.328 31.7 389.595 29.78C393.862 27.7533 398.235 26.74 402.715 26.74C409.115 26.74 414.448 28.02 418.715 30.58C422.982 33.0333 426.182 36.82 428.315 41.94C430.448 47.06 431.515 53.5133 431.515 61.3V112.5H415.035V62.42C415.035 57.62 414.395 53.6733 413.115 50.58C411.835 47.38 409.862 45.0867 407.195 43.7C404.528 42.2067 401.222 41.5667 397.275 41.78C394.075 41.78 391.142 42.3133 388.475 43.38C385.808 44.34 383.462 45.7267 381.435 47.54C379.515 49.3533 377.968 51.4867 376.795 53.94C375.728 56.2867 375.195 58.8467 375.195 61.62V112.5H367.035C365.648 112.5 364.262 112.5 362.875 112.5C361.488 112.5 360.102 112.5 358.715 112.5Z"/>
    <path d="M323.006 112.5V57.78C323.006 53.0867 321.3 49.3 317.886 46.42C314.58 43.4333 310.366 41.94 305.246 41.94C300.553 41.94 296.286 42.9 292.446 44.82C288.713 46.74 285.3 49.6733 282.206 53.62L271.486 42.9C276.5 37.46 281.886 33.4066 287.646 30.74C293.513 28.0733 299.806 26.74 306.526 26.74C312.926 26.74 318.473 27.8067 323.166 29.94C327.86 32.0733 331.486 35.22 334.046 39.38C336.606 43.4333 337.886 48.3933 337.886 54.26V112.5H323.006ZM297.886 114.1C292.446 114.1 287.593 113.033 283.326 110.9C279.06 108.767 275.646 105.833 273.086 102.1C270.633 98.26 269.406 93.78 269.406 88.66C269.406 84.18 270.206 80.2333 271.806 76.82C273.406 73.4067 275.753 70.58 278.846 68.34C282.046 66.1 285.993 64.3933 290.686 63.22C295.486 62.0467 300.98 61.46 307.166 61.46H330.526L329.086 74.58H305.086C301.886 74.58 299.006 74.9 296.446 75.54C293.993 76.0733 291.86 76.98 290.046 78.26C288.34 79.4333 287.06 80.8733 286.206 82.58C285.353 84.18 284.926 86.1 284.926 88.34C284.926 90.6867 285.513 92.7667 286.686 94.58C287.86 96.2867 289.46 97.62 291.486 98.58C293.513 99.54 295.86 100.02 298.526 100.02C302.366 100.02 305.993 99.38 309.406 98.1C312.926 96.7133 316.02 94.8467 318.686 92.5C321.46 90.1533 323.593 87.54 325.086 84.66L328.926 95.38C326.686 99.1133 323.913 102.367 320.606 105.14C317.3 107.913 313.726 110.1 309.886 111.7C306.046 113.3 302.046 114.1 297.886 114.1Z"/>
    <path d="M183.5 112.5V8.5C183.5 4.08173 187.082 0.5 191.5 0.5H200.78V112.5H183.5ZM191.18 64.82V48.18H248.94V64.82H191.18ZM191.18 17.14L200.78 0.5H256.14V17.14H191.18Z"/>
    <path d="M4.91753e-06 112.5C2.23524e-06 51.1364 40.625 51.1364 60.9375 51.1364C60.9375 34.0909 71.0938 -3.10761e-06 111.719 -4.88338e-06C152.344 -6.65916e-06 162.5 34.0909 162.5 51.1364L162.5 112.5L4.91753e-06 112.5Z"/>
</svg>
